<mxfile host="65bd71144e">
    <diagram id="ubE72fR_bVx0HwBHFr3N" name="PÃ¡gina-1">
        <mxGraphModel dx="480" dy="485" grid="1" gridSize="10" guides="1" tooltips="1" connect="1" arrows="1" fold="1" page="1" pageScale="1" pageWidth="850" pageHeight="1100" math="0" shadow="0">
            <root>
                <mxCell id="0"/>
                <mxCell id="1" parent="0"/>
                <mxCell id="2" value="&lt;font style=&quot;color: rgb(255, 255, 255);&quot;&gt;Juego&lt;/font&gt;" style="swimlane;fontStyle=1;align=center;verticalAlign=top;childLayout=stackLayout;horizontal=1;startSize=26;horizontalStack=0;resizeParent=1;resizeParentMax=0;resizeLast=0;collapsible=1;marginBottom=0;whiteSpace=wrap;html=1;labelBackgroundColor=none;fillColor=#000000;strokeColor=#666666;gradientColor=#666666;gradientDirection=south;" parent="1" vertex="1">
                    <mxGeometry x="280" y="160" width="200" height="180" as="geometry"/>
                </mxCell>
                <mxCell id="3" value="protected int numeroDeVidas;&lt;div&gt;protected int record;&lt;/div&gt;" style="text;strokeColor=none;fillColor=#FFFFFF;align=left;verticalAlign=top;spacingLeft=4;spacingRight=4;overflow=hidden;rotatable=0;points=[[0,0.5],[1,0.5]];portConstraint=eastwest;whiteSpace=wrap;html=1;" parent="2" vertex="1">
                    <mxGeometry y="26" width="200" height="34" as="geometry"/>
                </mxCell>
                <mxCell id="4" value="" style="line;strokeWidth=1;fillColor=none;align=left;verticalAlign=middle;spacingTop=-1;spacingLeft=3;spacingRight=3;rotatable=0;labelPosition=right;points=[];portConstraint=eastwest;strokeColor=inherit;" parent="2" vertex="1">
                    <mxGeometry y="60" width="200" height="8" as="geometry"/>
                </mxCell>
                <mxCell id="5" value="public Juego(int numeroDeVidas)&lt;div&gt;public void reiniciaPartida(int numeroDeVidas)&lt;/div&gt;&lt;div&gt;public void actualizaRecord(int vidasRestantes)&lt;/div&gt;&lt;div&gt;public boolean quitaVida()&lt;/div&gt;&lt;div&gt;public abstract void juega()&lt;/div&gt;" style="text;strokeColor=none;fillColor=#FFFFFF;align=left;verticalAlign=top;spacingLeft=4;spacingRight=4;overflow=hidden;rotatable=0;points=[[0,0.5],[1,0.5]];portConstraint=eastwest;whiteSpace=wrap;html=1;" parent="2" vertex="1">
                    <mxGeometry y="68" width="200" height="112" as="geometry"/>
                </mxCell>
                <mxCell id="6" value="&lt;font style=&quot;color: rgb(255, 255, 255);&quot;&gt;JuegoAdivinaNumero&lt;/font&gt;" style="swimlane;fontStyle=1;align=center;verticalAlign=top;childLayout=stackLayout;horizontal=1;startSize=26;horizontalStack=0;resizeParent=1;resizeParentMax=0;resizeLast=0;collapsible=1;marginBottom=0;whiteSpace=wrap;html=1;labelBackgroundColor=none;fillColor=#000000;strokeColor=#666666;gradientColor=#666666;gradientDirection=south;" parent="1" vertex="1">
                    <mxGeometry x="280" y="420" width="200" height="110" as="geometry"/>
                </mxCell>
                <mxCell id="7" value="private int numeroAAdivinar" style="text;strokeColor=none;fillColor=#FFFFFF;align=left;verticalAlign=top;spacingLeft=4;spacingRight=4;overflow=hidden;rotatable=0;points=[[0,0.5],[1,0.5]];portConstraint=eastwest;whiteSpace=wrap;html=1;" parent="6" vertex="1">
                    <mxGeometry y="26" width="200" height="24" as="geometry"/>
                </mxCell>
                <mxCell id="8" value="" style="line;strokeWidth=1;fillColor=none;align=left;verticalAlign=middle;spacingTop=-1;spacingLeft=3;spacingRight=3;rotatable=0;labelPosition=right;points=[];portConstraint=eastwest;strokeColor=inherit;" parent="6" vertex="1">
                    <mxGeometry y="50" width="200" height="8" as="geometry"/>
                </mxCell>
                <mxCell id="9" value="public JuegoAdivinaNumero(int numeroDeVidas)&lt;div&gt;public void juega()&lt;/div&gt;" style="text;strokeColor=none;fillColor=#FFFFFF;align=left;verticalAlign=top;spacingLeft=4;spacingRight=4;overflow=hidden;rotatable=0;points=[[0,0.5],[1,0.5]];portConstraint=eastwest;whiteSpace=wrap;html=1;" parent="6" vertex="1">
                    <mxGeometry y="58" width="200" height="52" as="geometry"/>
                </mxCell>
                <mxCell id="10" value="Extends" style="endArrow=block;endSize=16;endFill=0;html=1;" edge="1" parent="1" source="6" target="2">
                    <mxGeometry width="160" relative="1" as="geometry">
                        <mxPoint x="375" y="420" as="sourcePoint"/>
                        <mxPoint x="310" y="340" as="targetPoint"/>
                    </mxGeometry>
                </mxCell>
            </root>
        </mxGraphModel>
    </diagram>
</mxfile>